HIERARCHY
ROOT Pelvis
{
	OFFSET -0.217368 -24.078917 2.858379
	CHANNELS 6 Xposition Yposition Zposition Zrotation Yrotation Xrotation 
	JOINT Left_hip
	{
		OFFSET 5.858135 -8.228005 -1.766408
		CHANNELS 3 Zrotation Yrotation Xrotation
		JOINT Left_knee
		{
			OFFSET 4.345143 -38.646942 0.803700
			CHANNELS 3 Zrotation Yrotation Xrotation
			JOINT Left_ankle
			{
				OFFSET -1.479033 -42.687447 -3.742800
				CHANNELS 3 Zrotation Yrotation Xrotation
				JOINT Left_foot
				{
					OFFSET 4.105436 -6.028605 12.204244
					CHANNELS 3 Zrotation Yrotation Xrotation
					End Site
					{
						OFFSET 0.000000 0.000000 0.000000
					}
				}
			}
		}
	}
	JOINT Right_hip
	{
		OFFSET -6.030973 -9.051328 -1.354253
		CHANNELS 3 Zrotation Yrotation Xrotation
		JOINT Right_knee
		{
			OFFSET -4.325663 -38.368790 -0.484304
			CHANNELS 3 Zrotation Yrotation Xrotation
			JOINT Right_ankle
			{
				OFFSET 1.905555 -42.004566 -3.456167
				CHANNELS 3 Zrotation Yrotation Xrotation
				JOINT Right_foot
				{
					OFFSET -3.483987 -6.210554 13.032330
					CHANNELS 3 Zrotation Yrotation Xrotation
					End Site
					{
						OFFSET 0.000000 0.000000 0.000000
					}
				}
			}
		}
	}
	JOINT Spine1
	{
		OFFSET 0.443945 12.440353 -3.838522
		CHANNELS 3 Zrotation Yrotation Xrotation
		JOINT Spine2
		{
			OFFSET 0.448844 13.795640 2.682033
			CHANNELS 3 Zrotation Yrotation Xrotation
			JOINT Spine3
			{
				OFFSET -0.226460 5.603239 0.285504
				CHANNELS 3 Zrotation Yrotation Xrotation
				JOINT Neck
				{
					OFFSET -1.339018 21.163553 -3.346758
					CHANNELS 3 Zrotation Yrotation Xrotation
					JOINT Head
					{
						OFFSET 1.011321 8.893734 5.040987
						CHANNELS 3 Zrotation Yrotation Xrotation
						End Site
						{
							OFFSET 0.000000 0.000000 0.000000
						}
					}
				}
				JOINT Left_collar
				{
					OFFSET 7.170247 11.399971 -1.889817
					CHANNELS 3 Zrotation Yrotation Xrotation
					JOINT Left_shoulder
					{
						OFFSET 12.292140 4.520507 -1.904600
						CHANNELS 3 Zrotation Yrotation Xrotation
						JOINT Left_elbow
						{
							OFFSET 25.533188 -1.564902 -2.294648
							CHANNELS 3 Zrotation Yrotation Xrotation
							JOINT Left_wrist
							{
								OFFSET 26.570929 1.269810 -0.737473
								CHANNELS 3 Zrotation Yrotation Xrotation
								JOINT Left_palm
								{
									OFFSET 8.669054 -1.063602 -1.559429
									CHANNELS 3 Zrotation Yrotation Xrotation
									End Site
									{
										OFFSET 0.000000 0.000000 0.000000
									}
								}
							}
						}
					}
				}
				JOINT Right_collar
				{
					OFFSET -8.295364 11.247234 -2.370738
					CHANNELS 3 Zrotation Yrotation Xrotation
					JOINT Right_shoulder
					{
						OFFSET -11.322830 4.685326 -0.847207
						CHANNELS 3 Zrotation Yrotation Xrotation
						JOINT Right_elbow
						{
							OFFSET -26.012751 -1.436928 -3.126872
							CHANNELS 3 Zrotation Yrotation Xrotation
							JOINT Right_wrist
							{
								OFFSET -26.910841 0.679372 -0.602677
								CHANNELS 3 Zrotation Yrotation Xrotation
								JOINT Right_palm
								{
									OFFSET -8.875370 -0.865157 -1.010708
									CHANNELS 3 Zrotation Yrotation Xrotation
									End Site
									{
										OFFSET 0.000000 0.000000 0.000000
									}
								}
							}
						}
					}
				}
			}
		}
	}
}
MOTION
Frames: 6
Frame Time: 0.016667
-0.217368 61.854065 2.858379 -0.966825 -2.683081 -1.480399 29.490223 -1.532472 7.015751 -8.533523 0.685995 -6.101186 9.740313 20.049404 19.661413 0.000000 0.000000 0.000000 -26.101463 0.683783 0.620204 6.436965 -0.634106 -2.833480 -6.174990 -17.055153 20.146500 0.000000 0.000000 0.000000 -0.591687 0.019376 -0.410116 2.568349 -0.213081 -19.559211 -1.176302 1.034435 21.153371 0.311604 1.076772 -17.426760 0.000000 0.000000 0.000000 -24.273962 -4.215463 -0.097066 -47.892128 -4.213395 -3.659599 -14.021805 -16.193226 2.538259 0.000000 0.000000 0.000000 0.000000 0.000000 0.000000 21.892670 9.330815 3.111092 52.007649 3.936901 -2.933281 10.101545 13.852154 1.441066 0.000000 0.000000 0.000000 0.000000 0.000000 0.000000 
-0.254728 61.424080 2.840974 -0.146513 -1.527753 -1.860995 26.972428 -1.361949 7.141700 -4.070820 0.433668 -7.255979 11.549066 22.194249 25.429850 0.000000 0.000000 0.000000 -26.142354 0.894862 2.243754 3.050426 -0.367918 -3.493610 -7.094751 -18.586317 24.399281 0.000000 0.000000 0.000000 -1.632115 0.092382 -2.994221 2.788850 -0.367785 -17.773264 -1.811016 0.091974 23.272954 -0.405384 1.572378 -18.917176 0.000000 0.000000 0.000000 -23.432406 -4.995637 0.418766 -48.791980 -7.231008 -2.538376 -15.009418 -14.594875 2.402979 0.000000 0.000000 0.000000 0.000000 0.000000 0.000000 22.746131 10.787912 3.971042 52.809089 8.545578 -0.977912 7.366463 13.318548 1.113193 0.000000 0.000000 0.000000 0.000000 0.000000 0.000000 
-0.248608 61.193810 2.779425 -0.385469 -0.063909 -2.165669 27.400199 -1.146346 5.484447 -4.792202 0.474495 -6.306314 10.370380 20.831257 24.499571 0.000000 0.000000 0.000000 -24.982147 0.873477 2.485940 2.852619 -0.323723 -1.459494 -7.328011 -18.827224 21.038341 0.000000 0.000000 0.000000 -1.444169 0.077816 -2.354569 3.990286 -0.712117 -18.062574 -1.933615 -0.409670 23.669223 -2.521761 2.695673 -17.873338 0.000000 0.000000 0.000000 -25.016518 -4.841586 0.230194 -48.782099 -8.516767 -2.026452 -12.987943 -14.926975 2.198310 0.000000 0.000000 0.000000 0.000000 0.000000 0.000000 22.687897 11.123910 4.169784 52.252239 7.486953 -1.427646 7.188136 14.763917 1.234031 0.000000 0.000000 0.000000 0.000000 0.000000 0.000000 
-0.233746 61.456322 2.750219 -0.784003 0.426368 -1.729078 29.610233 -1.438960 6.411207 -4.592704 0.445599 -9.157337 8.951456 19.257719 29.931297 0.000000 0.000000 0.000000 -26.273994 0.844029 1.810508 2.869935 -0.316589 -0.847089 -6.692282 -18.122937 26.894832 0.000000 0.000000 0.000000 -1.580465 0.090343 -2.883730 4.994251 -0.973052 -18.608741 -2.073926 -1.329917 24.913955 -4.838858 4.008346 -19.771101 0.000000 0.000000 0.000000 -25.570542 -4.625067 0.062939 -47.861851 -8.785572 -1.888425 -14.396746 -15.503838 2.476393 0.000000 0.000000 0.000000 0.000000 0.000000 0.000000 21.493309 13.128368 5.315900 51.868857 8.137028 -1.141886 7.358499 15.962262 1.369187 0.000000 0.000000 0.000000 0.000000 0.000000 0.000000 
-0.244644 61.422043 2.742671 -1.078306 0.528746 -2.656281 29.724511 -1.550306 7.016849 -4.526918 0.445419 -8.853476 7.811259 17.951475 28.554008 0.000000 0.000000 0.000000 -25.821466 0.881774 2.250191 2.890474 -0.307854 -0.085023 -6.730289 -18.152116 26.320670 0.000000 0.000000 0.000000 -1.569281 0.073021 -2.234468 5.112475 -1.040771 -18.161968 -2.171941 -1.245592 25.558211 -3.178334 3.129761 -20.258413 0.000000 0.000000 0.000000 -25.297793 -5.337126 0.514629 -47.674875 -8.746960 -1.897152 -14.798649 -17.095482 2.801716 0.000000 0.000000 0.000000 0.000000 0.000000 0.000000 22.159483 13.010531 5.273138 51.199821 8.231656 -1.091863 7.436470 17.630921 1.542729 0.000000 0.000000 0.000000 0.000000 0.000000 0.000000 
-0.246769 61.371498 2.750011 -1.117728 0.929889 -2.875472 30.038793 -1.509536 6.645343 -4.642841 0.453669 -8.182819 8.224114 18.445726 29.412703 0.000000 0.000000 0.000000 -26.261889 0.955573 2.669491 2.924673 -0.318789 -0.615757 -6.861264 -18.375741 27.717842 0.000000 0.000000 0.000000 -1.474098 0.075104 -2.270397 4.814429 -0.982393 -17.730740 -2.042213 -1.522794 25.797376 -1.796646 2.406705 -20.554984 0.000000 0.000000 0.000000 -24.921229 -5.575989 0.680593 -47.536117 -9.047768 -1.776228 -15.266095 -17.495460 2.941693 0.000000 0.000000 0.000000 0.000000 0.000000 0.000000 21.704789 12.637842 5.037131 51.113059 8.197777 -1.104818 7.840905 18.688733 1.705694 0.000000 0.000000 0.000000 0.000000 0.000000 0.000000 
